<svg width="200" height="200" viewBox="0 0 200 200" fill="none" xmlns="http://www.w3.org/2000/svg">
<path fill-rule="evenodd" clip-rule="evenodd" d="M148.703 138.604C148.703 135.42 146.76 129.596 144.94 127.279C146.212 125.205 146.945 122.76 146.945 120.144C146.945 116.049 145.149 112.377 142.308 109.884C143.165 108.097 143.646 106.092 143.646 103.974C143.646 100.81 142.573 97.898 140.774 95.5879C142.573 93.2772 143.646 90.365 143.646 87.201C143.646 84.1468 142.647 81.3274 140.96 79.0577C142.465 76.8636 143.346 74.2027 143.346 71.3342C143.346 66.9239 141.263 63.0042 138.034 60.519C138.683 60.0235 140.327 58.6072 141.154 56.4319C143.47 56.8997 146.022 57.1583 148.703 57.1583C159.266 57.1583 167.828 53.1418 167.828 48.188C167.828 43.2337 159.266 39.2173 148.703 39.2173C142.891 39.2173 137.683 40.4336 134.176 42.3537C133.684 41.9538 133.201 41.5831 132.737 41.2396C129.292 30.9917 115.19 23.3151 98.307 23.3151C87.0718 23.3151 77.0721 26.7184 70.6192 32.013C68.6394 29.3461 65.9236 26.0627 62.4221 22.6589C54.1063 14.5752 45.3111 13.4882 42.0899 17.2184C38.8692 20.9487 42.7349 29.6405 50.7256 36.6326C53.367 38.9444 56.1286 40.7811 58.7583 42.0687C58.8036 42.2095 58.8494 42.3476 58.8968 42.483C57.4754 44.9245 56.8177 47.8036 57.1162 50.7196C57.1609 53.3529 57.9489 55.8038 59.277 57.8686C56.8812 60.3229 55.4024 63.6902 55.4024 67.405C55.4024 70.8094 56.6439 73.9216 58.6954 76.3068C56.2886 78.7632 54.8027 82.1378 54.8027 85.862C54.8027 89.5508 56.2605 92.8966 58.6264 95.3465C55.6491 97.8411 53.7532 101.602 53.7532 105.809C53.7532 109.127 54.9329 112.169 56.8933 114.53C54.8661 116.909 53.6406 120.003 53.6406 123.385C53.6406 125.576 54.1549 127.646 55.0686 129.48C52.9007 131.892 51.5809 135.092 51.5809 138.604C51.5809 139.153 50.6627 144.697 50.7256 145.229C50.7886 145.762 80.6509 154.264 97.6945 154.264C116.526 154.264 135.648 155.859 149.513 145.229C149.574 144.703 148.703 141.5 148.703 138.604Z" fill="white" stroke="#363641" stroke-width="5.71429"/>
<mask id="mask0_838_1791" style="mask-type:alpha" maskUnits="userSpaceOnUse" x="73" y="59" width="51" height="50">
<path d="M73.9532 74.4397C73.9532 93.1949 84.9853 108.399 98.5936 108.399C112.202 108.399 123.235 93.1949 123.235 74.4397C123.235 69.255 122.391 64.3415 120.883 59.9462L115.769 60.814L108.791 59.9462L106.971 62.9876L104.089 66.7748L98.0209 67.6884C98.0209 67.6884 91.8113 66.5765 91.8113 66.4445C91.8113 66.3113 88.9354 62.9876 88.9354 62.9876L88.1839 60.2964L85.7539 59.9462L84.5555 62.2303L80.777 61.3896L78.1699 59.9462L76.5637 59.5402C75.0573 63.935 73.9532 69.2567 73.9532 74.4397Z" fill="white"/>
</mask>
<g mask="url(#mask0_838_1791)">
<path fill-rule="evenodd" clip-rule="evenodd" d="M70.7358 111.621H126.452V56.3203H70.7358V111.621Z" fill="#F5F6F6"/>
</g>
<mask id="mask1_838_1791" style="mask-type:alpha" maskUnits="userSpaceOnUse" x="72" y="50" width="53" height="20">
<path d="M123.738 50.2671V50.2699C123.738 50.2699 123.738 50.2699 123.738 50.2704C123.536 55.7816 118.871 60.1896 113.143 60.1896C111.365 60.1896 109.689 59.7649 108.217 59.0131C106.953 63.325 102.865 66.4824 98.0182 66.4824C93.2768 66.4824 89.2621 63.4603 87.907 59.2915C86.5833 59.8693 85.115 60.1896 83.569 60.1896C78.5854 60.1896 74.4041 56.851 73.2713 52.3524C73.1587 51.906 73.1157 51.5542 73.1157 51.5542C73.0638 51.231 73.0081 51.2415 72.9871 51.5603C72.9871 51.5603 72.9684 51.6978 72.9684 52.0624C72.9684 52.1878 72.9706 52.3126 72.9756 52.4369C72.9706 52.5661 72.9684 52.696 72.9684 52.8263C72.9684 58.691 77.6844 63.4454 83.5017 63.4454C85.2535 63.4454 86.905 63.0146 88.3583 62.2523C89.6031 66.636 93.6079 69.8448 98.3564 69.8448C103.151 69.8448 107.187 66.5736 108.39 62.1247C109.899 62.9665 111.634 63.4454 113.481 63.4454C119.299 63.4454 124.015 58.691 124.015 52.8263C124.015 52.696 124.012 52.5661 124.008 52.4369C124.012 52.3126 124.015 52.1878 124.015 52.0624C124.015 51.4205 123.954 50.793 123.838 50.1837C123.837 50.1804 123.836 50.1765 123.835 50.1738C123.836 50.1754 123.836 50.1765 123.837 50.1776C123.819 50.0959 123.797 50.0484 123.779 50.0484C123.757 50.0484 123.739 50.1141 123.738 50.2671ZM123.74 50.2179V50.2157C123.74 50.2152 123.74 50.2152 123.74 50.2157V50.2179V50.2185V50.2179ZM123.74 50.2196C123.739 50.2213 123.739 50.2235 123.739 50.2262C123.739 50.2235 123.739 50.2213 123.74 50.2196ZM123.739 50.2312V50.229V50.2262V50.229V50.2312V50.2345V50.2312ZM123.739 50.2367V50.2445V50.2367ZM123.739 50.2445C123.739 50.2483 123.738 50.2516 123.738 50.2555C123.738 50.2511 123.739 50.2478 123.739 50.2445ZM123.738 50.2572V50.2555V50.2572V50.2621V50.2572ZM123.825 50.1202V50.1185V50.1202ZM123.825 50.1207V50.1202C123.825 50.1202 123.825 50.1202 123.825 50.1207ZM123.826 50.1218C123.826 50.1218 123.826 50.1213 123.825 50.1207C123.826 50.1213 123.826 50.1218 123.826 50.1218ZM123.826 50.1229V50.1218V50.1229ZM123.826 50.1246C123.826 50.124 123.826 50.1235 123.826 50.1229C123.826 50.1235 123.826 50.124 123.826 50.1246ZM123.826 50.1257V50.1246V50.1257ZM123.827 50.1268C123.827 50.1263 123.827 50.1263 123.826 50.1257C123.827 50.1263 123.827 50.1263 123.827 50.1268ZM123.827 50.1301C123.827 50.1285 123.827 50.1274 123.827 50.1268C123.827 50.1274 123.827 50.129 123.827 50.1301ZM123.829 50.1434C123.829 50.1384 123.828 50.134 123.827 50.1301C123.828 50.1334 123.829 50.1379 123.829 50.1434ZM123.83 50.1461C123.83 50.145 123.83 50.1445 123.829 50.1434C123.83 50.1445 123.83 50.145 123.83 50.1461ZM123.83 50.1489C123.83 50.1478 123.83 50.1467 123.83 50.1461C123.83 50.1467 123.83 50.1478 123.83 50.1489ZM123.832 50.1517C123.831 50.1511 123.831 50.15 123.83 50.1489C123.831 50.15 123.831 50.1511 123.832 50.1517ZM123.833 50.1605C123.833 50.1572 123.832 50.1544 123.832 50.1517C123.832 50.155 123.833 50.1577 123.833 50.1605ZM123.834 50.1649C123.834 50.1633 123.834 50.1616 123.833 50.1605C123.834 50.1616 123.834 50.1633 123.834 50.1649ZM123.835 50.1704C123.834 50.1682 123.834 50.1666 123.834 50.1649C123.834 50.1666 123.834 50.1682 123.835 50.1704ZM123.835 50.1738C123.835 50.1727 123.835 50.1715 123.835 50.1704C123.835 50.1715 123.835 50.1727 123.835 50.1738ZM123.738 50.2704V50.2699V50.2704Z" fill="white"/>
</mask>
<g mask="url(#mask1_838_1791)">
<path fill-rule="evenodd" clip-rule="evenodd" d="M69.7502 73.0678H127.232V46.8294H69.7502V73.0678Z" fill="#D5D8DA"/>
</g>
<mask id="mask2_838_1791" style="mask-type:alpha" maskUnits="userSpaceOnUse" x="64" y="84" width="20" height="7">
<path d="M64.9407 87.8463C64.9407 89.4952 69.0006 90.8314 74.0085 90.8314C79.0169 90.8314 83.0768 89.4952 83.0768 87.8463C83.0768 86.1974 79.0169 84.8606 74.0085 84.8606C69.0006 84.8606 64.9407 86.1974 64.9407 87.8463Z" fill="white"/>
</mask>
<g mask="url(#mask2_838_1791)">
<path fill-rule="evenodd" clip-rule="evenodd" d="M61.7218 94.0518H86.2926V81.6379H61.7218V94.0518Z" fill="#FF75B5"/>
</g>
<mask id="mask3_838_1791" style="mask-type:alpha" maskUnits="userSpaceOnUse" x="114" y="84" width="19" height="7">
<path d="M114.094 87.8463C114.094 89.4952 118.154 90.8314 123.162 90.8314C128.17 90.8314 132.23 89.4952 132.23 87.8463C132.23 86.1974 128.17 84.8606 123.162 84.8606C118.154 84.8606 114.094 86.1974 114.094 87.8463Z" fill="white"/>
</mask>
<g mask="url(#mask3_838_1791)">
<path fill-rule="evenodd" clip-rule="evenodd" d="M110.876 94.0518H135.447V81.6379H110.876V94.0518Z" fill="#FF75B5"/>
</g>
<mask id="mask4_838_1791" style="mask-type:alpha" maskUnits="userSpaceOnUse" x="72" y="72" width="16" height="7">
<path d="M79.3629 72.3391C75.4023 72.9827 72.4636 74.9287 72.799 76.6859C73.1345 78.4419 76.6178 79.344 80.5779 78.6999C84.5385 78.0558 87.4772 76.1103 87.1412 74.3537C86.8796 72.9821 84.6974 72.1314 81.8679 72.1314C81.0745 72.1314 80.2303 72.1977 79.3629 72.3391Z" fill="white"/>
</mask>
<g mask="url(#mask4_838_1791)">
<path fill-rule="evenodd" clip-rule="evenodd" d="M69.8296 68.4787L90.5784 69.204L90.1121 82.5602L69.3634 81.8349L69.8296 68.4787Z" fill="#363641"/>
</g>
<mask id="mask5_838_1791" style="mask-type:alpha" maskUnits="userSpaceOnUse" x="110" y="72" width="15" height="7">
<path d="M110.046 74.3537C109.711 76.1103 112.649 78.0558 116.61 78.6999C120.571 79.344 124.053 78.4419 124.389 76.6859C124.724 74.9287 121.786 72.9827 117.825 72.3391C116.958 72.1977 116.113 72.1314 115.32 72.1314C112.49 72.1314 110.308 72.9821 110.046 74.3537Z" fill="white"/>
</mask>
<g mask="url(#mask5_838_1791)">
<path fill-rule="evenodd" clip-rule="evenodd" d="M127.358 68.4787L106.609 69.204L107.076 82.5602L127.824 81.8349L127.358 68.4787Z" fill="#363641"/>
</g>
<mask id="mask6_838_1791" style="mask-type:alpha" maskUnits="userSpaceOnUse" x="89" y="80" width="20" height="19">
<path d="M92.4345 82.4131C92.4345 84.0664 94.5268 86.187 97.0451 86.8487V89.0633C97.0451 89.3798 96.8586 89.8178 96.6285 90.0426L89.6039 96.8956C88.8077 97.6722 89.0643 98.3025 90.1783 98.3025H90.5971C91.2388 98.3025 92.1238 97.9429 92.5801 97.4993L98.137 92.0981C98.3704 91.8716 98.7401 91.8755 98.9713 92.0981L104.585 97.5059C105.044 97.9479 105.929 98.3025 106.566 98.3025H107.044C108.158 98.3025 108.409 97.6755 107.606 96.9005L100.496 90.0366C100.269 89.8167 100.081 89.3792 100.081 89.0633V86.8648C102.627 86.2223 104.754 84.0796 104.754 82.4131C104.754 80.4289 101.997 80.1334 98.5939 80.1334C95.1917 80.1334 92.4345 80.4289 92.4345 82.4131Z" fill="white"/>
</mask>
<g mask="url(#mask6_838_1791)">
<path fill-rule="evenodd" clip-rule="evenodd" d="M85.923 101.526H111.293V76.9134H85.923V101.526Z" fill="#363641"/>
</g>
<path d="M63.0937 101.018C48.5897 97.909 34.659 99.2363 27.834 101.569C25.9129 102.226 25.1044 104.3 25.6149 106.265L30.6918 125.806C31.1598 127.608 32.6344 128.971 34.4668 129.297L94.4043 139.958C97.3221 140.477 100 138.233 100 135.269V133.774C100 132.968 99.8018 132.178 99.3945 131.482C93.8084 121.944 79.7105 104.581 63.0937 101.018Z" fill="white" stroke="#363641" stroke-width="5.71429"/>
<path d="M138.811 101.02C153.31 97.9117 167.237 99.9095 174.064 102.456C175.982 103.171 176.784 105.268 176.251 107.243L171.233 125.845C170.752 127.627 169.286 128.97 167.469 129.293L107.501 139.959C104.583 140.478 101.905 138.234 101.905 135.271V133.776C101.905 132.97 102.103 132.179 102.511 131.484C108.097 121.945 122.195 104.582 138.811 101.02Z" fill="white" stroke="#363641" stroke-width="5.71429"/>
<path d="M130.307 114.701C143.167 108.674 164.317 106.078 172.804 105.242C174.671 105.058 176.152 106.722 175.8 108.565L165.719 161.298C165.382 163.063 163.486 164.168 161.723 163.828C157.374 162.991 148.739 162.188 135.545 164.702C123.382 167.018 112.979 174.619 106.695 180.22C103.167 183.364 97.4472 183.364 93.9189 180.22C87.6346 174.619 77.2325 167.019 65.069 164.702C51.8752 162.189 43.2405 162.991 38.8916 163.829C37.1277 164.168 35.2319 163.063 34.8946 161.299L24.8141 108.565C24.4618 106.722 25.943 105.058 27.8099 105.242C36.2971 106.078 57.4475 108.674 70.3071 114.702C81.2838 119.847 91.0255 128.033 96.2551 132.871C98.4265 134.88 102.188 134.88 104.359 132.871C109.589 128.033 119.33 119.847 130.307 114.701Z" fill="#1CC0F1" stroke="#363641" stroke-width="5.71429"/>
<path d="M96.1907 152.381C96.1907 150.277 97.8963 148.572 100 148.572C102.104 148.572 103.81 150.277 103.81 152.381V178.096C103.81 180.2 102.104 181.905 100 181.905C97.8963 181.905 96.1907 180.2 96.1907 178.096V152.381Z" fill="#363641" fill-opacity="0.3"/>
<ellipse cx="33.2118" cy="151.74" rx="11.009" ry="12.7473" transform="rotate(-23.0127 33.2118 151.74)" fill="white" stroke="#363641" stroke-width="5.71429"/>
<ellipse rx="11.009" ry="12.7473" transform="matrix(-0.920418 -0.390935 -0.390935 0.920418 168.037 151.74)" fill="white" stroke="#363641" stroke-width="5.71429"/>
</svg>
